<mxfile host="app.diagrams.net" modified="2023-10-20T13:42:02.852Z" agent="Mozilla/5.0 (Windows NT 10.0; Win64; x64; rv:109.0) Gecko/20100101 Firefox/119.0" etag="mH0d2dZ3QRzffaXy73ji" version="22.0.5" type="device">
  <diagram name="Page-1" id="oRm1Rv_gKuC497mdLbpD">
    <mxGraphModel dx="1434" dy="774" grid="1" gridSize="10" guides="1" tooltips="1" connect="1" arrows="1" fold="1" page="1" pageScale="1" pageWidth="827" pageHeight="1169" math="0" shadow="0">
      <root>
        <mxCell id="0" />
        <mxCell id="1" parent="0" />
        <mxCell id="hyFXXR8f-9j-x1sEI2zY-3" style="edgeStyle=orthogonalEdgeStyle;rounded=0;orthogonalLoop=1;jettySize=auto;html=1;" edge="1" parent="1" source="xjwnf8DF865iTHwS-jXy-1" target="xjwnf8DF865iTHwS-jXy-6">
          <mxGeometry relative="1" as="geometry" />
        </mxCell>
        <mxCell id="xjwnf8DF865iTHwS-jXy-1" value="" style="rounded=1;whiteSpace=wrap;html=1;fillColor=#dae8fc;strokeColor=#6c8ebf;" parent="1" vertex="1">
          <mxGeometry x="875" y="240" width="220" height="240" as="geometry" />
        </mxCell>
        <mxCell id="xjwnf8DF865iTHwS-jXy-2" value="User - Web Browser" style="text;html=1;align=center;verticalAlign=middle;resizable=0;points=[];autosize=1;strokeColor=none;fillColor=none;fontSize=20;" parent="1" vertex="1">
          <mxGeometry x="880" y="330" width="200" height="40" as="geometry" />
        </mxCell>
        <mxCell id="xjwnf8DF865iTHwS-jXy-4" value="" style="rounded=1;whiteSpace=wrap;html=1;fillColor=#e1d5e7;strokeColor=#9673a6;" parent="1" vertex="1">
          <mxGeometry x="190" y="100" width="420" height="600" as="geometry" />
        </mxCell>
        <mxCell id="xjwnf8DF865iTHwS-jXy-5" value="Server " style="text;html=1;align=center;verticalAlign=middle;resizable=0;points=[];autosize=1;strokeColor=none;fillColor=none;fontSize=20;" parent="1" vertex="1">
          <mxGeometry x="360" y="130" width="80" height="40" as="geometry" />
        </mxCell>
        <mxCell id="xjwnf8DF865iTHwS-jXy-6" value="" style="rounded=1;whiteSpace=wrap;html=1;fillColor=#dae8fc;strokeColor=#6c8ebf;" parent="1" vertex="1">
          <mxGeometry x="205" y="200" width="355" height="490" as="geometry" />
        </mxCell>
        <mxCell id="xjwnf8DF865iTHwS-jXy-7" value="Docker Container" style="text;html=1;strokeColor=none;fillColor=none;align=center;verticalAlign=middle;whiteSpace=wrap;rounded=0;fontSize=20;" parent="1" vertex="1">
          <mxGeometry x="307.5" y="220" width="162.5" height="30" as="geometry" />
        </mxCell>
        <mxCell id="xjwnf8DF865iTHwS-jXy-8" value="" style="rounded=1;whiteSpace=wrap;html=1;fillColor=#d5e8d4;strokeColor=#82b366;" parent="1" vertex="1">
          <mxGeometry x="220" y="260" width="260" height="140" as="geometry" />
        </mxCell>
        <mxCell id="xjwnf8DF865iTHwS-jXy-9" value="" style="rounded=1;whiteSpace=wrap;html=1;fillColor=#d5e8d4;strokeColor=#82b366;" parent="1" vertex="1">
          <mxGeometry x="220" y="420" width="260" height="145" as="geometry" />
        </mxCell>
        <mxCell id="xjwnf8DF865iTHwS-jXy-11" value="React App for dynamic content" style="text;html=1;strokeColor=none;fillColor=none;align=center;verticalAlign=middle;whiteSpace=wrap;rounded=0;fontSize=16;" parent="1" vertex="1">
          <mxGeometry x="288.75" y="477.5" width="122.5" height="30" as="geometry" />
        </mxCell>
        <mxCell id="xjwnf8DF865iTHwS-jXy-12" value="" style="rounded=1;whiteSpace=wrap;html=1;fillColor=#ffe6cc;strokeColor=#d79b00;" parent="1" vertex="1">
          <mxGeometry x="359" y="590" width="110" height="80" as="geometry" />
        </mxCell>
        <mxCell id="xjwnf8DF865iTHwS-jXy-13" value="Database" style="text;html=1;strokeColor=none;fillColor=none;align=center;verticalAlign=middle;whiteSpace=wrap;rounded=0;fontSize=16;" parent="1" vertex="1">
          <mxGeometry x="364" y="612.5" width="100" height="35" as="geometry" />
        </mxCell>
        <mxCell id="hyFXXR8f-9j-x1sEI2zY-1" value="REST API for dynamic content" style="text;html=1;strokeColor=none;fillColor=none;align=center;verticalAlign=middle;whiteSpace=wrap;rounded=0;fontSize=16;" vertex="1" parent="1">
          <mxGeometry x="289.75" y="315" width="122.5" height="30" as="geometry" />
        </mxCell>
        <mxCell id="hyFXXR8f-9j-x1sEI2zY-4" value="HTTP Request/Response" style="text;html=1;strokeColor=none;fillColor=none;align=center;verticalAlign=middle;whiteSpace=wrap;rounded=0;" vertex="1" parent="1">
          <mxGeometry x="730" y="320" width="60" height="30" as="geometry" />
        </mxCell>
      </root>
    </mxGraphModel>
  </diagram>
</mxfile>
